# xmcd
#
# Track frame offsets:
#	150
#	14210
#	24997
#	37917
#	52310
#	64929
#	79830
#	94109
#	108997
#	120368
#	131926
#	144579
#	156900
#	170160
#	181669
#	192452
#	205189
#	218189
#	230057
#	242039
#	253717
#
# Disc length: 3563 seconds
#
# Revision: 2
# Processed by: cddbd v1.4PL0 Copyright (c) Steve Scherf et al.
# Submitted via: audiograbber 1.80
#
DISCID=380de915
DTITLE=Fernandel - Fernandel
DYEAR=1900
DGENRE=
TTITLE0=Je Me Mens
TTITLE1=Pour Être Ordonnance
TTITLE2=Pour Que Vous M'essieuz Dit Oui
TTITLE3=Amedée
TTITLE4=Javanons
TTITLE5=Célestine
TTITLE6=On N'est Jamais Tout Seul
TTITLE7=Le Papa De Papa
TTITLE8=Ma Créole
TTITLE9=J'aime Toutes Les Femmes
TTITLE10=Ignace
TTITLE11=Au Petit Bar Du Coin
TTITLE12=Attente
TTITLE13=Dites-Lui Mon Amour
TTITLE14=Octavie
TTITLE15=T'aimer Une Demi-Journée
TTITLE16=Je Te Veux
TTITLE17=C'est Dans La Ma-Ma
TTITLE18=Quand On M'aime Ça M'emeut
TTITLE19=Le Garçon Épicier
TTITLE20=Françine
EXTD=
EXTT0=
EXTT1=
EXTT2=
EXTT3=
EXTT4=
EXTT5=
EXTT6=
EXTT7=
EXTT8=
EXTT9=
EXTT10=
EXTT11=
EXTT12=
EXTT13=
EXTT14=
EXTT15=
EXTT16=
EXTT17=
EXTT18=
EXTT19=
EXTT20=
PLAYORDER=
